# xmcd
#
# Track frame offsets: 
#        150
#        15000
#        27975
#        39150
#        50879
#        62806
#        72685
#        82285
#        95357
#        108069
#        119319
#        130330
#        143501
#        156431
#        166511
#
# Disc length: 2367 seconds
#
# Revision: 0
# Processed by: cddbd v1.5.2PL0 Copyright (c) Steve Scherf et al.
# Submitted via: ExactAudioCopyFreeDBPlugin 1.0
#
DISCID=c2093d0f
DTITLE=Mike Bonanza An' The Trailer Park Cowboys - Speed Racer
DYEAR=1900
DGENRE=Rockabilly
TTITLE0=The Frankster
TTITLE1=The Wrong Kid Died
TTITLE2=Cross My Heart
TTITLE3=Daddy Wanna Take You Home
TTITLE4=Speed Racer
TTITLE5=Red Chevrolet
TTITLE6=Crazy Little Girl
TTITLE7=Me An' My Guitar
TTITLE8=You Ain't
TTITLE9=Be Good Or Be Gone
TTITLE10=Love For Sale
TTITLE11=Baby Blue
TTITLE12=C'mon
TTITLE13=Third An' Long
TTITLE14=I Ain't Got No Friends (Hidden Track)
EXTD=
EXTT0=
EXTT1=
EXTT2=
EXTT3=
EXTT4=
EXTT5=
EXTT6=
EXTT7=
EXTT8=
EXTT9=
EXTT10=
EXTT11=
EXTT12=
EXTT13=
EXTT14=
PLAYORDER=
